# xmcd
#
# Track frame offsets: 
#        150
#        17775
#        51640
#        83870
#        137087
#        151192
#        163712
#        178740
#        194365
#        209277
#        226930
#
# Disc length: 3183 seconds
#
# Revision: 0
# Processed by: cddbd v1.4PL0 Copyright (c) Steve Scherf et al.
# Submitted via: ExactAudioCopy v0.90a11
#
DISCID=930c6d0b
DTITLE=The Judds - Their Sweetest Gift (The Farewell Concert 12-04-94)
DTITLE=Various Artist - Disc 2
DYEAR=1900
DGENRE=
TTITLE0=Change Of Heart
TTITLE1=Why Not Me
TTITLE2=Grandpa
TTITLE3=Love Can Build A Bridge (With The Christ Church Choir)
TTITLE4=Girls Night Out
TTITLE5=Blue Nun Cafe
TTITLE6=Bye Bye Baby Blues
TTITLE7=Drops Of Water
TTITLE8=My Baby's Gone
TTITLE9=John Deere Tractor
TTITLE10=Rip It Up
EXTD=
EXTT0=
EXTT1=
EXTT2=
EXTT3=
EXTT4=
EXTT5=
EXTT6=
EXTT7=
EXTT8=
EXTT9=
EXTT10=
PLAYORDER=
